<?xml version="1.0" encoding="UTF-8" standalone="no"?>
<!DOCTYPE svg PUBLIC "-//W3C//DTD SVG 1.1//EN"
 "http://www.w3.org/Graphics/SVG/1.1/DTD/svg11.dtd">
<!-- Generated by graphviz version 13.1.1 (20250720.1534)
 -->
<!-- Title: snakemake_dag Pages: 1 -->
<svg width="358pt" height="332pt"
 viewBox="0.00 0.00 358.00 332.00" xmlns="http://www.w3.org/2000/svg" xmlns:xlink="http://www.w3.org/1999/xlink">
<g id="graph0" class="graph" transform="scale(1 1) rotate(0) translate(4 328)">
<title>snakemake_dag</title>
<polygon fill="white" stroke="none" points="-4,4 -4,-328 353.88,-328 353.88,4 -4,4"/>
<!-- 0 -->
<g id="node1" class="node">
<title>0</title>
<path fill="none" stroke="#56d87b" stroke-width="2" stroke-dasharray="5,2" d="M189.88,-36C189.88,-36 159.88,-36 159.88,-36 153.88,-36 147.88,-30 147.88,-24 147.88,-24 147.88,-12 147.88,-12 147.88,-6 153.88,0 159.88,0 159.88,0 189.88,0 189.88,0 195.88,0 201.88,-6 201.88,-12 201.88,-12 201.88,-24 201.88,-24 201.88,-30 195.88,-36 189.88,-36"/>
<text xml:space="preserve" text-anchor="middle" x="174.88" y="-15.62" font-family="sans" font-size="10.00">all</text>
</g>
<!-- 1 -->
<g id="node2" class="node">
<title>1</title>
<path fill="none" stroke="#d8a456" stroke-width="2" stroke-dasharray="5,2" d="M208.88,-252C208.88,-252 178.88,-252 178.88,-252 172.88,-252 166.88,-246 166.88,-240 166.88,-240 166.88,-228 166.88,-228 166.88,-222 172.88,-216 178.88,-216 178.88,-216 208.88,-216 208.88,-216 214.88,-216 220.88,-222 220.88,-228 220.88,-228 220.88,-240 220.88,-240 220.88,-246 214.88,-252 208.88,-252"/>
<text xml:space="preserve" text-anchor="middle" x="193.88" y="-231.62" font-family="sans" font-size="10.00">limma</text>
</g>
<!-- 1&#45;&gt;0 -->
<g id="edge1" class="edge">
<title>1&#45;&gt;0</title>
<path fill="none" stroke="grey" stroke-width="2" d="M167.34,-215.01C156.34,-205.94 144.79,-193.91 138.88,-180 120.11,-135.87 141.29,-80.59 158.19,-47.63"/>
<polygon fill="grey" stroke="grey" stroke-width="2" points="161.06,-49.69 162.71,-39.22 154.9,-46.37 161.06,-49.69"/>
</g>
<!-- 3 -->
<g id="node4" class="node">
<title>3</title>
<path fill="none" stroke="#78d856" stroke-width="2" stroke-dasharray="5,2" d="M189.88,-180C189.88,-180 159.88,-180 159.88,-180 153.88,-180 147.88,-174 147.88,-168 147.88,-168 147.88,-156 147.88,-156 147.88,-150 153.88,-144 159.88,-144 159.88,-144 189.88,-144 189.88,-144 195.88,-144 201.88,-150 201.88,-156 201.88,-156 201.88,-168 201.88,-168 201.88,-174 195.88,-180 189.88,-180"/>
<text xml:space="preserve" text-anchor="middle" x="174.88" y="-159.62" font-family="sans" font-size="10.00">gsea</text>
</g>
<!-- 1&#45;&gt;3 -->
<g id="edge7" class="edge">
<title>1&#45;&gt;3</title>
<path fill="none" stroke="grey" stroke-width="2" d="M189.08,-215.34C187.27,-208.67 185.16,-200.89 183.12,-193.39"/>
<polygon fill="grey" stroke="grey" stroke-width="2" points="186.52,-192.56 180.53,-183.82 179.77,-194.39 186.52,-192.56"/>
</g>
<!-- 4 -->
<g id="node5" class="node">
<title>4</title>
<path fill="none" stroke="#c6d856" stroke-width="2" stroke-dasharray="5,2" d="M79.75,-108C79.75,-108 12,-108 12,-108 6,-108 0,-102 0,-96 0,-96 0,-84 0,-84 0,-78 6,-72 12,-72 12,-72 79.75,-72 79.75,-72 85.75,-72 91.75,-78 91.75,-84 91.75,-84 91.75,-96 91.75,-96 91.75,-102 85.75,-108 79.75,-108"/>
<text xml:space="preserve" text-anchor="middle" x="45.88" y="-87.62" font-family="sans" font-size="10.00">gsea_interaction</text>
</g>
<!-- 1&#45;&gt;4 -->
<g id="edge8" class="edge">
<title>1&#45;&gt;4</title>
<path fill="none" stroke="grey" stroke-width="2" d="M165.99,-220.2C147.54,-210.83 123.59,-196.83 105.88,-180 87.59,-162.63 71.87,-138.75 61.11,-120.09"/>
<polygon fill="grey" stroke="grey" stroke-width="2" points="64.17,-118.4 56.25,-111.36 58.05,-121.8 64.17,-118.4"/>
</g>
<!-- 5 -->
<g id="node6" class="node">
<title>5</title>
<path fill="none" stroke="#d85656" stroke-width="2" stroke-dasharray="5,2" d="M337.88,-180C337.88,-180 307.88,-180 307.88,-180 301.88,-180 295.88,-174 295.88,-168 295.88,-168 295.88,-156 295.88,-156 295.88,-150 301.88,-144 307.88,-144 307.88,-144 337.88,-144 337.88,-144 343.88,-144 349.88,-150 349.88,-156 349.88,-156 349.88,-168 349.88,-168 349.88,-174 343.88,-180 337.88,-180"/>
<text xml:space="preserve" text-anchor="middle" x="322.88" y="-159.62" font-family="sans" font-size="10.00">figure1</text>
</g>
<!-- 1&#45;&gt;5 -->
<g id="edge10" class="edge">
<title>1&#45;&gt;5</title>
<path fill="none" stroke="grey" stroke-width="2" d="M221.87,-217.81C239.95,-208 263.75,-195.08 283.71,-184.25"/>
<polygon fill="grey" stroke="grey" stroke-width="2" points="285.16,-187.45 292.28,-179.6 281.82,-181.3 285.16,-187.45"/>
</g>
<!-- 6 -->
<g id="node7" class="node">
<title>6</title>
<path fill="none" stroke="#56d8c9" stroke-width="2" stroke-dasharray="5,2" d="M244.88,-108C244.88,-108 214.88,-108 214.88,-108 208.88,-108 202.88,-102 202.88,-96 202.88,-96 202.88,-84 202.88,-84 202.88,-78 208.88,-72 214.88,-72 214.88,-72 244.88,-72 244.88,-72 250.88,-72 256.88,-78 256.88,-84 256.88,-84 256.88,-96 256.88,-96 256.88,-102 250.88,-108 244.88,-108"/>
<text xml:space="preserve" text-anchor="middle" x="229.88" y="-87.62" font-family="sans" font-size="10.00">figure2</text>
</g>
<!-- 1&#45;&gt;6 -->
<g id="edge12" class="edge">
<title>1&#45;&gt;6</title>
<path fill="none" stroke="grey" stroke-width="2" d="M199.99,-215.46C203.44,-205.2 207.69,-191.95 210.88,-180 216.01,-160.73 220.7,-138.82 224.14,-121.56"/>
<polygon fill="grey" stroke="grey" stroke-width="2" points="227.56,-122.31 226.03,-111.83 220.69,-120.97 227.56,-122.31"/>
</g>
<!-- 2 -->
<g id="node3" class="node">
<title>2</title>
<path fill="none" stroke="#56a2d8" stroke-width="2" stroke-dasharray="5,2" d="M287.12,-324C287.12,-324 248.62,-324 248.62,-324 242.62,-324 236.62,-318 236.62,-312 236.62,-312 236.62,-300 236.62,-300 236.62,-294 242.62,-288 248.62,-288 248.62,-288 287.12,-288 287.12,-288 293.12,-288 299.12,-294 299.12,-300 299.12,-300 299.12,-312 299.12,-312 299.12,-318 293.12,-324 287.12,-324"/>
<text xml:space="preserve" text-anchor="middle" x="267.88" y="-303.62" font-family="sans" font-size="10.00">data_prep</text>
</g>
<!-- 2&#45;&gt;1 -->
<g id="edge6" class="edge">
<title>2&#45;&gt;1</title>
<path fill="none" stroke="grey" stroke-width="2" d="M249.2,-287.34C241.03,-279.6 231.25,-270.36 222.21,-261.81"/>
<polygon fill="grey" stroke="grey" stroke-width="2" points="224.67,-259.31 215,-254.98 219.86,-264.4 224.67,-259.31"/>
</g>
<!-- 2&#45;&gt;5 -->
<g id="edge9" class="edge">
<title>2&#45;&gt;5</title>
<path fill="none" stroke="grey" stroke-width="2" d="M274.84,-287.02C284.02,-263.33 300.27,-221.35 311.31,-192.86"/>
<polygon fill="grey" stroke="grey" stroke-width="2" points="314.52,-194.25 314.87,-183.66 308,-191.72 314.52,-194.25"/>
</g>
<!-- 2&#45;&gt;6 -->
<g id="edge11" class="edge">
<title>2&#45;&gt;6</title>
<path fill="none" stroke="grey" stroke-width="2" d="M264.7,-287.12C258.22,-250.62 243.39,-167.13 235.33,-121.74"/>
<polygon fill="grey" stroke="grey" stroke-width="2" points="238.79,-121.19 233.6,-111.96 231.9,-122.42 238.79,-121.19"/>
</g>
<!-- 3&#45;&gt;0 -->
<g id="edge2" class="edge">
<title>3&#45;&gt;0</title>
<path fill="none" stroke="grey" stroke-width="2" d="M174.88,-143.02C174.88,-119.54 174.88,-78.11 174.88,-49.64"/>
<polygon fill="grey" stroke="grey" stroke-width="2" points="178.38,-49.87 174.88,-39.87 171.38,-49.87 178.38,-49.87"/>
</g>
<!-- 3&#45;&gt;6 -->
<g id="edge13" class="edge">
<title>3&#45;&gt;6</title>
<path fill="none" stroke="grey" stroke-width="2" d="M188.75,-143.34C194.57,-135.93 201.48,-127.14 207.95,-118.9"/>
<polygon fill="grey" stroke="grey" stroke-width="2" points="210.51,-121.31 213.94,-111.28 205.01,-116.98 210.51,-121.31"/>
</g>
<!-- 4&#45;&gt;0 -->
<g id="edge3" class="edge">
<title>4&#45;&gt;0</title>
<path fill="none" stroke="grey" stroke-width="2" d="M78.76,-71.15C96.15,-61.72 117.62,-50.07 135.85,-40.18"/>
<polygon fill="grey" stroke="grey" stroke-width="2" points="137.5,-43.26 144.62,-35.42 134.16,-37.11 137.5,-43.26"/>
</g>
<!-- 5&#45;&gt;0 -->
<g id="edge4" class="edge">
<title>5&#45;&gt;0</title>
<path fill="none" stroke="grey" stroke-width="2" d="M314.67,-143.2C305.09,-123.87 287.73,-92.95 265.88,-72 250.86,-57.61 231.22,-45.54 214.04,-36.58"/>
<polygon fill="grey" stroke="grey" stroke-width="2" points="215.83,-33.56 205.32,-32.23 212.71,-39.82 215.83,-33.56"/>
</g>
<!-- 6&#45;&gt;0 -->
<g id="edge5" class="edge">
<title>6&#45;&gt;0</title>
<path fill="none" stroke="grey" stroke-width="2" d="M216,-71.34C210.18,-63.93 203.27,-55.14 196.8,-46.9"/>
<polygon fill="grey" stroke="grey" stroke-width="2" points="199.74,-44.98 190.81,-39.28 194.24,-49.31 199.74,-44.98"/>
</g>
</g>
</svg>
