<?xml version="1.0" encoding="UTF-8" standalone="no"?>
<!DOCTYPE svg PUBLIC "-//W3C//DTD SVG 1.1//EN"
 "http://www.w3.org/Graphics/SVG/1.1/DTD/svg11.dtd">
<!-- Generated by graphviz version 12.2.1 (0)
 -->
<!-- Title: snakemake_dag Pages: 1 -->
<svg width="63pt" height="44pt"
 viewBox="0.00 0.00 63.42 44.00" xmlns="http://www.w3.org/2000/svg" xmlns:xlink="http://www.w3.org/1999/xlink">
<g id="graph0" class="graph" transform="scale(1 1) rotate(0) translate(4 40)">
<title>snakemake_dag</title>
<polygon fill="white" stroke="none" points="-4,4 -4,-40 59.42,-40 59.42,4 -4,4"/>
<!-- 0 -->
<g id="node1" class="node">
<title>0</title>
<path fill="none" stroke="#59d856" stroke-width="2" d="M43.42,-36C43.42,-36 12,-36 12,-36 6,-36 0,-30 0,-24 0,-24 0,-12 0,-12 0,-6 6,0 12,0 12,0 43.42,0 43.42,0 49.42,0 55.42,-6 55.42,-12 55.42,-12 55.42,-24 55.42,-24 55.42,-30 49.42,-36 43.42,-36"/>
<text text-anchor="middle" x="27.71" y="-15" font-family="sans" font-size="10.00">data_prep</text>
</g>
</g>
</svg>
