<?xml version="1.0" encoding="UTF-8" standalone="no"?>
<!DOCTYPE svg PUBLIC "-//W3C//DTD SVG 1.1//EN"
 "http://www.w3.org/Graphics/SVG/1.1/DTD/svg11.dtd">
<!-- Generated by graphviz version 13.1.1 (20250720.1534)
 -->
<!-- Title: snakemake_dag Pages: 1 -->
<svg width="71pt" height="188pt"
 viewBox="0.00 0.00 71.00 188.00" xmlns="http://www.w3.org/2000/svg" xmlns:xlink="http://www.w3.org/1999/xlink">
<g id="graph0" class="graph" transform="scale(1 1) rotate(0) translate(4 184)">
<title>snakemake_dag</title>
<polygon fill="white" stroke="none" points="-4,4 -4,-184 66.5,-184 66.5,4 -4,4"/>
<!-- 0 -->
<g id="node1" class="node">
<title>0</title>
<path fill="none" stroke="#59d856" stroke-width="2" d="M46.25,-36C46.25,-36 16.25,-36 16.25,-36 10.25,-36 4.25,-30 4.25,-24 4.25,-24 4.25,-12 4.25,-12 4.25,-6 10.25,0 16.25,0 16.25,0 46.25,0 46.25,0 52.25,0 58.25,-6 58.25,-12 58.25,-12 58.25,-24 58.25,-24 58.25,-30 52.25,-36 46.25,-36"/>
<text xml:space="preserve" text-anchor="middle" x="31.25" y="-15.62" font-family="sans" font-size="10.00">all</text>
</g>
<!-- 1 -->
<g id="node2" class="node">
<title>1</title>
<path fill="none" stroke="#d85656" stroke-width="2" d="M46.25,-108C46.25,-108 16.25,-108 16.25,-108 10.25,-108 4.25,-102 4.25,-96 4.25,-96 4.25,-84 4.25,-84 4.25,-78 10.25,-72 16.25,-72 16.25,-72 46.25,-72 46.25,-72 52.25,-72 58.25,-78 58.25,-84 58.25,-84 58.25,-96 58.25,-96 58.25,-102 52.25,-108 46.25,-108"/>
<text xml:space="preserve" text-anchor="middle" x="31.25" y="-87.62" font-family="sans" font-size="10.00">limma</text>
</g>
<!-- 1&#45;&gt;0 -->
<g id="edge1" class="edge">
<title>1&#45;&gt;0</title>
<path fill="none" stroke="grey" stroke-width="2" d="M31.25,-71.34C31.25,-64.75 31.25,-57.08 31.25,-49.67"/>
<polygon fill="grey" stroke="grey" stroke-width="2" points="34.75,-49.93 31.25,-39.93 27.75,-49.93 34.75,-49.93"/>
</g>
<!-- 2 -->
<g id="node3" class="node">
<title>2</title>
<path fill="none" stroke="#d8ac56" stroke-width="2" d="M50.5,-180C50.5,-180 12,-180 12,-180 6,-180 0,-174 0,-168 0,-168 0,-156 0,-156 0,-150 6,-144 12,-144 12,-144 50.5,-144 50.5,-144 56.5,-144 62.5,-150 62.5,-156 62.5,-156 62.5,-168 62.5,-168 62.5,-174 56.5,-180 50.5,-180"/>
<text xml:space="preserve" text-anchor="middle" x="31.25" y="-159.62" font-family="sans" font-size="10.00">data_prep</text>
</g>
<!-- 2&#45;&gt;1 -->
<g id="edge2" class="edge">
<title>2&#45;&gt;1</title>
<path fill="none" stroke="grey" stroke-width="2" d="M31.25,-143.34C31.25,-136.75 31.25,-129.08 31.25,-121.67"/>
<polygon fill="grey" stroke="grey" stroke-width="2" points="34.75,-121.93 31.25,-111.93 27.75,-121.93 34.75,-121.93"/>
</g>
</g>
</svg>
