<?xml version="1.0" encoding="UTF-8" standalone="no"?>
<!DOCTYPE svg PUBLIC "-//W3C//DTD SVG 1.1//EN"
 "http://www.w3.org/Graphics/SVG/1.1/DTD/svg11.dtd">
<!-- Generated by graphviz version 13.1.1 (20250720.1534)
 -->
<!-- Title: snakemake_dag Pages: 1 -->
<svg width="399pt" height="332pt"
 viewBox="0.00 0.00 399.00 332.00" xmlns="http://www.w3.org/2000/svg" xmlns:xlink="http://www.w3.org/1999/xlink">
<g id="graph0" class="graph" transform="scale(1 1) rotate(0) translate(4 328)">
<title>snakemake_dag</title>
<polygon fill="white" stroke="none" points="-4,4 -4,-328 395,-328 395,4 -4,4"/>
<!-- 0 -->
<g id="node1" class="node">
<title>0</title>
<path fill="none" stroke="#56d89a" stroke-width="2" d="M195,-36C195,-36 165,-36 165,-36 159,-36 153,-30 153,-24 153,-24 153,-12 153,-12 153,-6 159,0 165,0 165,0 195,0 195,0 201,0 207,-6 207,-12 207,-12 207,-24 207,-24 207,-30 201,-36 195,-36"/>
<text xml:space="preserve" text-anchor="middle" x="180" y="-15.62" font-family="sans" font-size="10.00">all</text>
</g>
<!-- 1 -->
<g id="node2" class="node">
<title>1</title>
<path fill="none" stroke="#569ad8" stroke-width="2" stroke-dasharray="5,2" d="M231,-252C231,-252 201,-252 201,-252 195,-252 189,-246 189,-240 189,-240 189,-228 189,-228 189,-222 195,-216 201,-216 201,-216 231,-216 231,-216 237,-216 243,-222 243,-228 243,-228 243,-240 243,-240 243,-246 237,-252 231,-252"/>
<text xml:space="preserve" text-anchor="middle" x="216" y="-231.62" font-family="sans" font-size="10.00">limma</text>
</g>
<!-- 1&#45;&gt;0 -->
<g id="edge1" class="edge">
<title>1&#45;&gt;0</title>
<path fill="none" stroke="grey" stroke-width="2" d="M200.01,-215.3C192.35,-205.62 183.99,-192.97 180,-180 166.56,-136.28 170.3,-82.68 174.75,-49.68"/>
<polygon fill="grey" stroke="grey" stroke-width="2" points="178.2,-50.3 176.21,-39.89 171.27,-49.27 178.2,-50.3"/>
</g>
<!-- 3 -->
<g id="node4" class="node">
<title>3</title>
<path fill="none" stroke="#97d856" stroke-width="2" stroke-dasharray="5,2" d="M231,-180C231,-180 201,-180 201,-180 195,-180 189,-174 189,-168 189,-168 189,-156 189,-156 189,-150 195,-144 201,-144 201,-144 231,-144 231,-144 237,-144 243,-150 243,-156 243,-156 243,-168 243,-168 243,-174 237,-180 231,-180"/>
<text xml:space="preserve" text-anchor="middle" x="216" y="-159.62" font-family="sans" font-size="10.00">gsea</text>
</g>
<!-- 1&#45;&gt;3 -->
<g id="edge8" class="edge">
<title>1&#45;&gt;3</title>
<path fill="none" stroke="grey" stroke-width="2" d="M216,-215.34C216,-208.75 216,-201.08 216,-193.67"/>
<polygon fill="grey" stroke="grey" stroke-width="2" points="219.5,-193.93 216,-183.93 212.5,-193.93 219.5,-193.93"/>
</g>
<!-- 4 -->
<g id="node5" class="node">
<title>4</title>
<path fill="none" stroke="#56d8d8" stroke-width="2" stroke-dasharray="5,2" d="M120.88,-180C120.88,-180 53.12,-180 53.12,-180 47.12,-180 41.12,-174 41.12,-168 41.12,-168 41.12,-156 41.12,-156 41.12,-150 47.12,-144 53.12,-144 53.12,-144 120.88,-144 120.88,-144 126.88,-144 132.88,-150 132.88,-156 132.88,-156 132.88,-168 132.88,-168 132.88,-174 126.88,-180 120.88,-180"/>
<text xml:space="preserve" text-anchor="middle" x="87" y="-159.62" font-family="sans" font-size="10.00">gsea_interaction</text>
</g>
<!-- 1&#45;&gt;4 -->
<g id="edge9" class="edge">
<title>1&#45;&gt;4</title>
<path fill="none" stroke="grey" stroke-width="2" d="M188.01,-217.81C171.44,-208.82 150.08,-197.23 131.27,-187.02"/>
<polygon fill="grey" stroke="grey" stroke-width="2" points="133.08,-184.02 122.62,-182.33 129.74,-190.17 133.08,-184.02"/>
</g>
<!-- 5 -->
<g id="node6" class="node">
<title>5</title>
<path fill="none" stroke="#d6d856" stroke-width="2" d="M379,-180C379,-180 349,-180 349,-180 343,-180 337,-174 337,-168 337,-168 337,-156 337,-156 337,-150 343,-144 349,-144 349,-144 379,-144 379,-144 385,-144 391,-150 391,-156 391,-156 391,-168 391,-168 391,-174 385,-180 379,-180"/>
<text xml:space="preserve" text-anchor="middle" x="364" y="-159.62" font-family="sans" font-size="10.00">figure1</text>
</g>
<!-- 1&#45;&gt;5 -->
<g id="edge11" class="edge">
<title>1&#45;&gt;5</title>
<path fill="none" stroke="grey" stroke-width="2" d="M243.84,-219.83C266.61,-209.06 299.09,-193.7 324.54,-181.66"/>
<polygon fill="grey" stroke="grey" stroke-width="2" points="325.76,-184.96 333.3,-177.52 322.76,-178.63 325.76,-184.96"/>
</g>
<!-- 6 -->
<g id="node7" class="node">
<title>6</title>
<path fill="none" stroke="#d89556" stroke-width="2" d="M281,-108C281,-108 251,-108 251,-108 245,-108 239,-102 239,-96 239,-96 239,-84 239,-84 239,-78 245,-72 251,-72 251,-72 281,-72 281,-72 287,-72 293,-78 293,-84 293,-84 293,-96 293,-96 293,-102 287,-108 281,-108"/>
<text xml:space="preserve" text-anchor="middle" x="266" y="-87.62" font-family="sans" font-size="10.00">figure2</text>
</g>
<!-- 1&#45;&gt;6 -->
<g id="edge13" class="edge">
<title>1&#45;&gt;6</title>
<path fill="none" stroke="grey" stroke-width="2" d="M231.17,-215.01C238.6,-205.25 247.01,-192.62 252,-180 259.3,-161.52 262.81,-139.46 264.48,-121.93"/>
<polygon fill="grey" stroke="grey" stroke-width="2" points="267.97,-122.25 265.24,-112.01 260.99,-121.72 267.97,-122.25"/>
</g>
<!-- 7 -->
<g id="node8" class="node">
<title>7</title>
<path fill="none" stroke="#d85656" stroke-width="2" d="M42,-108C42,-108 12,-108 12,-108 6,-108 0,-102 0,-96 0,-96 0,-84 0,-84 0,-78 6,-72 12,-72 12,-72 42,-72 42,-72 48,-72 54,-78 54,-84 54,-84 54,-96 54,-96 54,-102 48,-108 42,-108"/>
<text xml:space="preserve" text-anchor="middle" x="27" y="-87.62" font-family="sans" font-size="10.00">figure3</text>
</g>
<!-- 1&#45;&gt;7 -->
<g id="edge16" class="edge">
<title>1&#45;&gt;7</title>
<path fill="none" stroke="grey" stroke-width="2" d="M188.07,-228.94C141.58,-221.56 51.48,-204.43 32,-180 19.11,-163.84 18.31,-140.31 20.49,-121.51"/>
<polygon fill="grey" stroke="grey" stroke-width="2" points="23.92,-122.23 22.01,-111.81 17.01,-121.15 23.92,-122.23"/>
</g>
<!-- 2 -->
<g id="node3" class="node">
<title>2</title>
<path fill="none" stroke="#59d856" stroke-width="2" stroke-dasharray="5,2" d="M281.25,-324C281.25,-324 242.75,-324 242.75,-324 236.75,-324 230.75,-318 230.75,-312 230.75,-312 230.75,-300 230.75,-300 230.75,-294 236.75,-288 242.75,-288 242.75,-288 281.25,-288 281.25,-288 287.25,-288 293.25,-294 293.25,-300 293.25,-300 293.25,-312 293.25,-312 293.25,-318 287.25,-324 281.25,-324"/>
<text xml:space="preserve" text-anchor="middle" x="262" y="-303.62" font-family="sans" font-size="10.00">data_prep</text>
</g>
<!-- 2&#45;&gt;1 -->
<g id="edge7" class="edge">
<title>2&#45;&gt;1</title>
<path fill="none" stroke="grey" stroke-width="2" d="M250.39,-287.34C245.69,-280.18 240.13,-271.73 234.88,-263.73"/>
<polygon fill="grey" stroke="grey" stroke-width="2" points="237.84,-261.87 229.43,-255.43 231.99,-265.71 237.84,-261.87"/>
</g>
<!-- 2&#45;&gt;5 -->
<g id="edge10" class="edge">
<title>2&#45;&gt;5</title>
<path fill="none" stroke="grey" stroke-width="2" d="M287.1,-287.18C299.1,-277.75 312.98,-265.36 323,-252 336.39,-234.15 346.82,-211.23 353.81,-193.12"/>
<polygon fill="grey" stroke="grey" stroke-width="2" points="357.09,-194.36 357.24,-183.76 350.51,-191.94 357.09,-194.36"/>
</g>
<!-- 2&#45;&gt;6 -->
<g id="edge12" class="edge">
<title>2&#45;&gt;6</title>
<path fill="none" stroke="grey" stroke-width="2" d="M264.2,-287.14C267.59,-257.44 273.45,-196.01 271,-144 270.66,-136.71 270.05,-128.87 269.37,-121.51"/>
<polygon fill="grey" stroke="grey" stroke-width="2" points="272.86,-121.25 268.38,-111.65 265.9,-121.95 272.86,-121.25"/>
</g>
<!-- 2&#45;&gt;7 -->
<g id="edge15" class="edge">
<title>2&#45;&gt;7</title>
<path fill="none" stroke="grey" stroke-width="2" d="M230,-299.65C174.87,-288.53 63.35,-257.17 16,-180 5.2,-162.4 8.54,-139.15 14.27,-120.83"/>
<polygon fill="grey" stroke="grey" stroke-width="2" points="17.49,-122.23 17.56,-111.64 10.9,-119.87 17.49,-122.23"/>
</g>
<!-- 3&#45;&gt;0 -->
<g id="edge2" class="edge">
<title>3&#45;&gt;0</title>
<path fill="none" stroke="grey" stroke-width="2" d="M211.44,-143.02C205.46,-119.44 194.89,-77.73 187.67,-49.25"/>
<polygon fill="grey" stroke="grey" stroke-width="2" points="191.12,-48.61 185.27,-39.77 184.33,-50.33 191.12,-48.61"/>
</g>
<!-- 3&#45;&gt;6 -->
<g id="edge14" class="edge">
<title>3&#45;&gt;6</title>
<path fill="none" stroke="grey" stroke-width="2" d="M228.62,-143.34C233.79,-136.1 239.91,-127.53 245.68,-119.45"/>
<polygon fill="grey" stroke="grey" stroke-width="2" points="248.49,-121.54 251.45,-111.37 242.79,-117.47 248.49,-121.54"/>
</g>
<!-- 4&#45;&gt;0 -->
<g id="edge3" class="edge">
<title>4&#45;&gt;0</title>
<path fill="none" stroke="grey" stroke-width="2" d="M98.78,-143.02C114.5,-119.01 142.53,-76.21 161.19,-47.72"/>
<polygon fill="grey" stroke="grey" stroke-width="2" points="164.11,-49.65 166.66,-39.37 158.25,-45.82 164.11,-49.65"/>
</g>
<!-- 4&#45;&gt;7 -->
<g id="edge17" class="edge">
<title>4&#45;&gt;7</title>
<path fill="none" stroke="grey" stroke-width="2" d="M71.86,-143.34C65.44,-135.85 57.81,-126.95 50.68,-118.63"/>
<polygon fill="grey" stroke="grey" stroke-width="2" points="53.48,-116.51 44.31,-111.2 48.16,-121.07 53.48,-116.51"/>
</g>
<!-- 5&#45;&gt;0 -->
<g id="edge4" class="edge">
<title>5&#45;&gt;0</title>
<path fill="none" stroke="grey" stroke-width="2" d="M355.37,-143.08C345.08,-123.35 326.19,-91.8 302,-72 277.93,-52.29 245.4,-38.64 219.98,-30.14"/>
<polygon fill="grey" stroke="grey" stroke-width="2" points="221.26,-26.88 210.67,-27.18 219.14,-33.55 221.26,-26.88"/>
</g>
<!-- 6&#45;&gt;0 -->
<g id="edge5" class="edge">
<title>6&#45;&gt;0</title>
<path fill="none" stroke="grey" stroke-width="2" d="M244.3,-71.34C234.49,-63.36 222.71,-53.77 211.93,-44.99"/>
<polygon fill="grey" stroke="grey" stroke-width="2" points="214.31,-42.41 204.34,-38.81 209.89,-47.84 214.31,-42.41"/>
</g>
<!-- 7&#45;&gt;0 -->
<g id="edge6" class="edge">
<title>7&#45;&gt;0</title>
<path fill="none" stroke="grey" stroke-width="2" d="M54.71,-76.32C78.68,-65.36 113.62,-49.37 140.52,-37.06"/>
<polygon fill="grey" stroke="grey" stroke-width="2" points="141.85,-40.3 149.49,-32.96 138.94,-33.94 141.85,-40.3"/>
</g>
</g>
</svg>
